<?xml version="1.0" encoding="UTF-8"?>
<svg id="Camada_2" data-name="Camada 2" xmlns="http://www.w3.org/2000/svg" xmlns:xlink="http://www.w3.org/1999/xlink" viewBox="0 0 791 131.69">
  <defs>
    <style>
      .cls-1 {
        fill: url(#Gradiente_sem_nome_12);
      }

      .cls-2 {
        fill: #423333;
      }
    </style>
    <linearGradient id="Gradiente_sem_nome_12" data-name="Gradiente sem nome 12" x1="498.75" y1="13.25" x2="435.64" y2="122.56" gradientUnits="userSpaceOnUse">
      <stop offset="0" stop-color="#ff1515"/>
      <stop offset="1" stop-color="#ff9315"/>
    </linearGradient>
  </defs>
  <g id="Camada_1-2" data-name="Camada 1">
    <g>
      <path class="cls-2" d="m298.62,82.39c-2.46,4.29-3.69,9.06-3.69,14.32s1.23,9.86,3.69,14.15c2.46,4.29,5.83,7.69,10.12,10.2,4.29,2.52,9.06,3.77,14.32,3.77,3.43,0,6.63-.54,9.6-1.63,2.97-1.08,5.66-2.54,8.06-4.37l4.46,4.97c-3.09,2.52-6.58,4.46-10.46,5.83-3.89,1.37-7.95,2.06-12.17,2.06-6.86,0-12.98-1.51-18.35-4.54-5.37-3.03-9.6-7.17-12.69-12.43-3.09-5.26-4.63-11.26-4.63-18s1.6-12.75,4.8-18c3.2-5.26,7.46-9.4,12.78-12.43,5.32-3.03,11.12-4.54,17.4-4.54,4.69,0,9.03.69,13.03,2.06,4,1.37,7.49,3.32,10.46,5.83l-4.29,5.49c-2.4-1.94-5.2-3.54-8.4-4.8-3.2-1.26-6.63-1.89-10.29-1.89-5.03,0-9.63,1.26-13.8,3.77-4.17,2.52-7.49,5.92-9.95,10.2Zm-220.68,38.75c-4.97,1.66-10.43,2.49-16.38,2.49-8,0-15.26-1.4-21.78-4.2-6.52-2.8-12.09-6.66-16.72-11.57-4.63-4.91-8.17-10.63-10.63-17.15-2.46-6.52-3.69-13.43-3.69-20.75s1.37-14.8,4.12-21.43c2.74-6.63,6.54-12.43,11.4-17.4,4.86-4.97,10.49-8.86,16.89-11.66,6.4-2.8,13.2-4.2,20.41-4.2,5.6,0,10.92.86,15.95,2.57,5.03,1.71,9.54,3.83,13.55,6.34l3.6-7.72c-4.57-2.74-9.66-4.97-15.26-6.69-5.6-1.71-11.6-2.57-18-2.57-8.69,0-16.75,1.6-24.18,4.8-7.43,3.2-13.95,7.66-19.55,13.38-5.6,5.72-9.95,12.4-13.03,20.06-3.09,7.66-4.63,15.95-4.63,24.86,0,8.35,1.46,16.2,4.37,23.58s7.06,13.89,12.43,19.55c5.37,5.66,11.83,10.12,19.38,13.38s15.95,4.89,25.21,4.89c4.8,0,9.26-.43,13.38-1.29,4.12-.86,7.89-2.03,11.32-3.52,3.43-1.48,6.46-3.03,9.09-4.63l-3.94-7.37c-3.89,2.52-8.32,4.6-13.29,6.26Zm193.16-34.72l-57.2,22.08c.27.59.56,1.18.87,1.76,2.34,4.35,5.63,7.83,9.86,10.46,4.23,2.63,9.09,3.94,14.58,3.94,3.66,0,7.17-.69,10.55-2.06,3.37-1.37,6.37-3.14,9-5.32l4.12,5.83c-3.2,2.52-6.89,4.57-11.06,6.17-4.17,1.6-8.43,2.4-12.78,2.4-6.97,0-13.15-1.54-18.52-4.63-5.38-3.09-9.58-7.29-12.6-12.6-3.03-5.32-4.54-11.29-4.54-17.92s1.6-12.46,4.8-17.83c3.2-5.37,7.52-9.66,12.95-12.86,5.43-3.2,11.46-4.8,18.09-4.8,8,0,14.72,2.34,20.15,7.03,5.43,4.69,9.34,10.8,11.75,18.35Zm-59.18,16.08l49.41-19.26c-1.93-3.95-4.64-7.41-8.15-10.36-3.94-3.31-8.77-4.97-14.49-4.97-5.14,0-9.77,1.26-13.89,3.77-4.12,2.52-7.4,5.89-9.86,10.12-2.46,4.23-3.69,9.03-3.69,14.4,0,2.17.23,4.26.67,6.3Zm-53.82-41.11c-6.63,0-12.49,1.63-17.58,4.89-4.73,3.03-8.24,6.69-10.55,10.96V0h-7.89v130.32h8.06v-36.01c0-4.91,1.17-9.32,3.52-13.2,2.34-3.88,5.46-6.97,9.34-9.26,3.88-2.29,8.06-3.43,12.52-3.43,5.03.12,8.86,1.6,11.49,4.46,2.63,2.86,4,6.46,4.12,10.8v46.64h8.23v-48.87c-.12-5.94-2.12-10.77-6-14.49-3.89-3.71-8.98-5.57-15.26-5.57Zm260.12,4.8l-4.97-4.29-37.55,33V0h-8.06v130.32h8.06v-26.76l11.4-10.02,25.81,36.78h9.43l-29.79-41.57,25.67-22.56Zm285.32-4.8c-6.63,0-12.66,1.69-18.09,5.06-4.78,2.97-8.2,6.89-10.28,11.76l-.61-14.93h-7.03v67.05h8.06v-36.01c0-5.14,1.17-9.66,3.52-13.55,2.34-3.88,5.46-6.92,9.34-9.09,3.88-2.17,8.06-3.26,12.52-3.26,5.03.12,8.86,1.6,11.49,4.46,2.63,2.86,4,6.46,4.12,10.8v46.64h8.23v-48.87c-.12-5.94-2.12-10.77-6-14.49-3.89-3.71-8.98-5.57-15.26-5.57Zm66.7,2.74v-30.35h-8.23v30.35h-14.23v6.52h14.23v59.67h8.23v-59.67h20.75v-6.52h-20.75Zm-141.29,66.19h8.06V63.27h-8.06v67.05Zm-28.63-51.78c3.09,5.37,4.63,11.32,4.63,17.83s-1.54,12.46-4.63,17.83c-3.09,5.38-7.35,9.63-12.78,12.77-5.43,3.15-11.57,4.72-18.43,4.72s-12.8-1.51-18.18-4.54c-5.38-3.03-9.63-7.2-12.77-12.52-3.15-5.32-4.72-11.4-4.72-18.26s1.57-12.46,4.72-17.83c3.14-5.37,7.43-9.63,12.86-12.77,5.43-3.14,11.52-4.72,18.26-4.72s12.97,1.57,18.35,4.72c5.37,3.15,9.6,7.4,12.69,12.77Zm-3.6,18c0-5.26-1.23-10.03-3.69-14.32-2.46-4.29-5.77-7.72-9.95-10.29-4.17-2.57-8.83-3.86-13.98-3.86s-9.97,1.34-14.15,4.03c-4.17,2.69-7.46,6.2-9.86,10.55-2.4,4.35-3.6,8.98-3.6,13.89,0,5.26,1.23,10.03,3.69,14.32,2.46,4.29,5.77,7.69,9.95,10.2,4.17,2.52,8.83,3.77,13.97,3.77s9.8-1.26,13.98-3.77c4.17-2.51,7.49-5.92,9.95-10.2,2.46-4.29,3.69-9.06,3.69-14.32Zm36.52-63.62c-1.49,0-2.86.54-4.12,1.63-1.26,1.09-1.89,2.43-1.89,4.03s.63,2.97,1.89,4.12c1.26,1.14,2.63,1.71,4.12,1.71,1.6,0,2.97-.54,4.12-1.63,1.14-1.08,1.71-2.49,1.71-4.2,0-1.6-.57-2.94-1.71-4.03-1.14-1.09-2.52-1.63-4.12-1.63Z"/>
      <path class="cls-1" d="m514.93,43.04c0-7.66-1.57-14.03-4.71-19.12-3.15-5.09-7.54-8.92-13.2-11.49-5.66-2.57-10.26-3.86-17.8-3.86h0c-16.64,0-30.12,13.49-30.12,30.12v91.62h8.4l21.8-28.1,3.44-4.43,23.07-29.75s.09-.09.13-.13c1.31-1.42,2.45-2.93,3.46-4.5l.03-.04h0c1.41-2.2,2.54-4.54,3.37-7.03,1.43-4.29,2.14-8.72,2.14-13.29Zm-57.44-3.83c0-12.47,10.11-22.58,22.58-22.58h0c4.57,0,6.63.66,10.17,1.97,3.54,1.32,6.54,3.15,9,5.49,2.46,2.34,4.31,5.12,5.57,8.32,1.26,3.2,1.89,6.75,1.89,10.63,0,2.74-.49,5.72-1.46,8.92-.97,3.2-2.57,6.26-4.8,9.17-2.23,2.92-5.32,5.32-9.26,7.2-3.94,1.89-8.89,2.83-14.83,2.83h-18.86v-31.95Zm0,77.4v-37.39h18.86c4,0,7.64-.36,10.96-1.06l-29.82,38.45Z"/>
    </g>
  </g>
</svg>