<?xml version="1.0" standalone="no"?>
<!DOCTYPE svg PUBLIC "-//W3C//DTD SVG 20010904//EN"
 "http://www.w3.org/TR/2001/REC-SVG-20010904/DTD/svg10.dtd">
<svg version="1.0" xmlns="http://www.w3.org/2000/svg"
 width="976.000000pt" height="976.000000pt" viewBox="0 0 976.000000 976.000000"
 preserveAspectRatio="xMidYMid meet">
<metadata>
Created by potrace 1.14, written by Peter Selinger 2001-2017
</metadata>
<g transform="translate(0.000000,976.000000) scale(0.100000,-0.100000)"
fill="#000000" stroke="none">
<path d="M4469 9756 c-2 -2 -37 -7 -77 -10 -40 -4 -78 -9 -85 -11 -7 -2 -30
-6 -52 -9 -48 -6 -179 -33 -220 -46 -16 -5 -61 -19 -100 -30 -295 -91 -617
-269 -850 -469 -70 -61 -255 -252 -307 -316 -147 -184 -261 -375 -353 -590
-24 -56 -96 -265 -101 -295 -3 -14 -12 -52 -20 -85 -16 -60 -30 -135 -40 -210
-3 -22 -8 -53 -12 -70 -3 -16 -8 -1737 -9 -3822 l-3 -3793 338 0 c332 0 338 0
352 21 8 12 28 38 43 58 16 20 38 49 50 65 12 16 30 37 40 47 9 11 17 24 17
29 0 6 3 10 8 10 4 0 23 23 42 50 19 27 38 50 43 50 4 0 7 5 7 11 0 7 8 19 18
28 10 9 29 32 42 51 13 19 35 49 49 66 28 34 32 38 106 134 27 36 53 67 57 68
5 2 8 10 8 17 0 7 3 15 8 17 4 2 35 39 70 83 63 82 321 414 418 540 30 39 59
76 65 83 18 22 151 194 199 257 25 33 52 69 62 80 9 11 46 58 83 105 36 47 78
100 93 119 15 18 31 41 36 50 5 9 14 21 20 27 17 18 36 42 107 134 265 343
414 536 419 540 3 3 41 52 84 110 44 58 82 107 86 110 3 3 25 32 50 65 25 33
47 62 51 65 3 3 59 75 125 160 65 85 124 162 131 170 7 8 56 71 109 140 53 69
106 137 118 152 11 14 31 39 43 55 34 45 492 636 506 653 7 8 66 85 132 170
66 85 125 162 132 170 6 8 52 67 101 130 49 63 102 129 119 146 57 61 178 219
218 283 6 8 23 36 40 61 36 54 63 103 107 190 18 36 36 67 41 68 4 2 7 11 7
21 0 9 6 25 13 36 24 35 97 233 128 345 15 55 14 52 22 70 7 16 52 220 63 285
4 22 8 49 10 60 2 11 6 40 9 65 3 25 8 55 10 67 19 86 27 593 13 738 -22 215
-40 333 -72 470 -39 168 -118 406 -159 480 -6 11 -12 22 -13 25 -3 15 -18 47
-28 59 -5 7 -11 19 -12 27 -1 7 -10 26 -21 41 -30 47 -43 67 -50 83 -15 34
-111 171 -182 260 -98 123 -315 337 -380 374 -9 5 -20 15 -24 23 -4 7 -15 13
-22 13 -8 0 -15 4 -15 8 0 9 -204 142 -219 142 -5 0 -11 4 -13 8 -5 12 -188
103 -303 151 -55 23 -111 47 -125 53 -14 6 -28 12 -32 12 -3 1 -10 4 -14 9 -4
4 -13 7 -20 7 -7 0 -25 5 -41 12 -15 6 -30 12 -33 13 -11 2 -86 27 -100 32
-17 7 -11 5 -112 32 -88 24 -206 50 -258 56 -19 3 -46 7 -60 10 -14 3 -52 7
-85 10 -33 3 -73 8 -90 11 -35 6 -551 15 -556 10z m456 -650 c100 -7 148 -13
205 -26 25 -5 56 -12 70 -14 14 -2 57 -14 95 -26 39 -13 75 -23 80 -24 6 -1
35 -11 65 -23 30 -12 93 -36 140 -53 47 -18 101 -40 120 -50 134 -67 172 -88
230 -122 93 -57 220 -149 220 -161 0 -6 3 -8 6 -5 5 5 44 -28 128 -107 129
-122 269 -319 361 -508 113 -232 171 -441 203 -732 9 -83 9 -417 -1 -490 -8
-68 -52 -306 -57 -312 -3 -3 -4 -7 -14 -53 -4 -19 -19 -71 -34 -115 -14 -44
-27 -82 -27 -85 -3 -18 -29 -87 -37 -96 -5 -7 -10 -20 -12 -30 -7 -32 -124
-264 -163 -322 -43 -63 -173 -242 -193 -266 -67 -79 -199 -204 -275 -260 -22
-17 -42 -32 -45 -35 -12 -14 -132 -91 -140 -91 -6 0 -10 -3 -10 -7 0 -5 -10
-13 -23 -19 -12 -6 -65 -33 -118 -61 -79 -42 -237 -115 -246 -114 -2 0 -8 -1
-15 -4 -103 -35 -213 -66 -278 -79 -54 -10 -136 -26 -155 -30 -24 -4 -117 -17
-160 -22 -135 -15 -328 -18 -1075 -19 l-855 0 1 1340 c0 1164 4 1460 19 1485
1 3 6 28 9 55 4 28 12 68 18 90 5 22 12 50 14 62 18 96 136 368 205 471 16 24
29 45 29 48 0 9 122 167 165 213 69 75 138 142 185 180 25 20 47 38 50 41 16
17 120 87 199 134 89 52 298 149 318 147 2 0 18 6 38 15 19 8 38 14 42 14 5 0
31 7 58 15 28 7 66 17 85 20 19 3 49 8 65 12 41 8 67 11 160 19 44 4 81 7 82
8 4 3 191 -2 268 -8z m375 -4930 c0 -3 -6 -11 -13 -18 -6 -7 -39 -49 -72 -93
-33 -44 -68 -89 -77 -100 -17 -21 -225 -289 -268 -345 -21 -28 -71 -92 -133
-170 -7 -9 -32 -42 -57 -75 -25 -33 -48 -62 -51 -65 -3 -3 -29 -36 -58 -75
-29 -38 -60 -79 -69 -90 -9 -11 -58 -74 -109 -140 -147 -189 -167 -215 -184
-235 -8 -10 -24 -31 -35 -45 -28 -39 -237 -308 -249 -321 -5 -7 -19 -24 -30
-40 -11 -15 -57 -75 -102 -133 -46 -58 -92 -117 -102 -131 -11 -14 -29 -36
-40 -49 -12 -13 -21 -27 -21 -30 0 -3 -10 -17 -23 -31 -12 -14 -75 -94 -140
-178 -65 -85 -122 -159 -128 -165 -5 -7 -39 -50 -75 -97 -37 -47 -77 -98 -89
-115 -13 -16 -60 -77 -105 -135 -45 -58 -87 -113 -95 -122 -7 -9 -21 -28 -30
-42 -10 -14 -20 -26 -24 -26 -3 0 -6 672 -6 1493 l0 1492 840 1 c750 2 978 5
1095 19 19 2 60 6 91 9 31 3 74 8 95 11 22 3 53 8 69 10 54 8 99 16 135 24 42
11 60 13 60 7z"/>
</g>
</svg>
